<mxfile host="app.diagrams.net" modified="2020-10-17T13:49:11.666Z" agent="5.0 (Macintosh; Intel Mac OS X 10_15_7) AppleWebKit/537.36 (KHTML, like Gecko) Chrome/86.0.4240.80 Safari/537.36" etag="eOw_xxRicE_2p5B2OW3H" version="13.8.0" type="github">
  <diagram id="i2z7rYSw7ZfVUwSbGKLG" name="Page-1">
    <mxGraphModel dx="1577" dy="983" grid="1" gridSize="10" guides="1" tooltips="1" connect="1" arrows="1" fold="1" page="1" pageScale="1" pageWidth="850" pageHeight="1100" math="0" shadow="0">
      <root>
        <mxCell id="0" />
        <mxCell id="1" parent="0" />
        <mxCell id="8SaFo7OPya8gfQmlxlre-6" style="edgeStyle=orthogonalEdgeStyle;rounded=0;orthogonalLoop=1;jettySize=auto;html=1;exitX=0.25;exitY=1;exitDx=0;exitDy=0;endArrow=none;endFill=0;" edge="1" parent="1" source="8SaFo7OPya8gfQmlxlre-1">
          <mxGeometry relative="1" as="geometry">
            <mxPoint x="170" y="110" as="targetPoint" />
            <Array as="points">
              <mxPoint x="170" y="130" />
              <mxPoint x="170" y="110" />
            </Array>
          </mxGeometry>
        </mxCell>
        <mxCell id="8SaFo7OPya8gfQmlxlre-13" value="&#39;0&#39;" style="edgeLabel;html=1;align=center;verticalAlign=middle;resizable=0;points=[];fontSize=14;" vertex="1" connectable="0" parent="8SaFo7OPya8gfQmlxlre-6">
          <mxGeometry x="0.9469" y="1" relative="1" as="geometry">
            <mxPoint x="1" y="-1.24" as="offset" />
          </mxGeometry>
        </mxCell>
        <mxCell id="8SaFo7OPya8gfQmlxlre-8" style="edgeStyle=orthogonalEdgeStyle;rounded=0;orthogonalLoop=1;jettySize=auto;html=1;exitX=0.25;exitY=1;exitDx=0;exitDy=0;entryX=0.859;entryY=0.998;entryDx=0;entryDy=0;entryPerimeter=0;endArrow=none;endFill=0;" edge="1" parent="1" source="8SaFo7OPya8gfQmlxlre-1" target="8SaFo7OPya8gfQmlxlre-5">
          <mxGeometry relative="1" as="geometry" />
        </mxCell>
        <mxCell id="8SaFo7OPya8gfQmlxlre-10" style="edgeStyle=orthogonalEdgeStyle;rounded=0;orthogonalLoop=1;jettySize=auto;html=1;exitX=0.75;exitY=1;exitDx=0;exitDy=0;entryX=0.134;entryY=1.012;entryDx=0;entryDy=0;entryPerimeter=0;endArrow=none;endFill=0;" edge="1" parent="1" source="8SaFo7OPya8gfQmlxlre-1" target="8SaFo7OPya8gfQmlxlre-5">
          <mxGeometry relative="1" as="geometry" />
        </mxCell>
        <mxCell id="8SaFo7OPya8gfQmlxlre-11" style="edgeStyle=orthogonalEdgeStyle;rounded=0;orthogonalLoop=1;jettySize=auto;html=1;exitX=0.5;exitY=1;exitDx=0;exitDy=0;entryX=0.359;entryY=1.012;entryDx=0;entryDy=0;entryPerimeter=0;endArrow=none;endFill=0;" edge="1" parent="1" source="8SaFo7OPya8gfQmlxlre-1" target="8SaFo7OPya8gfQmlxlre-5">
          <mxGeometry relative="1" as="geometry" />
        </mxCell>
        <mxCell id="8SaFo7OPya8gfQmlxlre-12" style="edgeStyle=orthogonalEdgeStyle;rounded=0;orthogonalLoop=1;jettySize=auto;html=1;exitX=0.5;exitY=1;exitDx=0;exitDy=0;entryX=0.617;entryY=0.984;entryDx=0;entryDy=0;entryPerimeter=0;endArrow=none;endFill=0;" edge="1" parent="1" source="8SaFo7OPya8gfQmlxlre-1" target="8SaFo7OPya8gfQmlxlre-5">
          <mxGeometry relative="1" as="geometry" />
        </mxCell>
        <mxCell id="8SaFo7OPya8gfQmlxlre-84" style="edgeStyle=orthogonalEdgeStyle;rounded=0;orthogonalLoop=1;jettySize=auto;html=1;exitX=0.5;exitY=0;exitDx=0;exitDy=0;entryX=0.25;entryY=0;entryDx=0;entryDy=0;endArrow=none;endFill=0;fontSize=14;" edge="1" parent="1" source="8SaFo7OPya8gfQmlxlre-1" target="8SaFo7OPya8gfQmlxlre-83">
          <mxGeometry relative="1" as="geometry" />
        </mxCell>
        <mxCell id="8SaFo7OPya8gfQmlxlre-104" style="edgeStyle=orthogonalEdgeStyle;rounded=0;orthogonalLoop=1;jettySize=auto;html=1;exitX=0;exitY=0.5;exitDx=0;exitDy=0;endArrow=none;endFill=0;fontSize=14;" edge="1" parent="1" source="8SaFo7OPya8gfQmlxlre-1">
          <mxGeometry relative="1" as="geometry">
            <mxPoint x="190" y="30" as="targetPoint" />
            <Array as="points">
              <mxPoint x="190" y="145" />
            </Array>
          </mxGeometry>
        </mxCell>
        <mxCell id="8SaFo7OPya8gfQmlxlre-119" value="B(15,14,13)" style="edgeLabel;html=1;align=center;verticalAlign=middle;resizable=0;points=[];fontSize=14;" vertex="1" connectable="0" parent="8SaFo7OPya8gfQmlxlre-104">
          <mxGeometry x="0.9753" relative="1" as="geometry">
            <mxPoint x="-1" y="-5" as="offset" />
          </mxGeometry>
        </mxCell>
        <mxCell id="8SaFo7OPya8gfQmlxlre-1" value="" style="shape=trapezoid;perimeter=trapezoidPerimeter;whiteSpace=wrap;html=1;fixedSize=1;rotation=-180;flipV=0;flipH=0;horizontal=1;" vertex="1" parent="1">
          <mxGeometry x="80" y="130" width="100" height="30" as="geometry" />
        </mxCell>
        <mxCell id="8SaFo7OPya8gfQmlxlre-151" style="edgeStyle=orthogonalEdgeStyle;rounded=0;orthogonalLoop=1;jettySize=auto;html=1;exitX=0.5;exitY=0;exitDx=0;exitDy=0;endArrow=none;endFill=0;fontSize=14;" edge="1" parent="1" source="8SaFo7OPya8gfQmlxlre-5">
          <mxGeometry relative="1" as="geometry">
            <mxPoint x="119.94117647058829" y="30" as="targetPoint" />
          </mxGeometry>
        </mxCell>
        <mxCell id="8SaFo7OPya8gfQmlxlre-5" value="SHIFT7" style="rounded=0;whiteSpace=wrap;html=1;" vertex="1" parent="1">
          <mxGeometry x="80" y="50" width="80" height="50" as="geometry" />
        </mxCell>
        <mxCell id="8SaFo7OPya8gfQmlxlre-14" style="edgeStyle=orthogonalEdgeStyle;rounded=0;orthogonalLoop=1;jettySize=auto;html=1;exitX=0.25;exitY=1;exitDx=0;exitDy=0;endArrow=none;endFill=0;" edge="1" parent="1" source="8SaFo7OPya8gfQmlxlre-20">
          <mxGeometry relative="1" as="geometry">
            <mxPoint x="289.9999999999999" y="110" as="targetPoint" />
            <Array as="points">
              <mxPoint x="290" y="130" />
              <mxPoint x="290" y="110" />
            </Array>
          </mxGeometry>
        </mxCell>
        <mxCell id="8SaFo7OPya8gfQmlxlre-15" value="&#39;0&#39;" style="edgeLabel;html=1;align=center;verticalAlign=middle;resizable=0;points=[];fontSize=14;" vertex="1" connectable="0" parent="8SaFo7OPya8gfQmlxlre-14">
          <mxGeometry x="0.9469" y="1" relative="1" as="geometry">
            <mxPoint x="1" y="-1.24" as="offset" />
          </mxGeometry>
        </mxCell>
        <mxCell id="8SaFo7OPya8gfQmlxlre-16" style="edgeStyle=orthogonalEdgeStyle;rounded=0;orthogonalLoop=1;jettySize=auto;html=1;exitX=0.25;exitY=1;exitDx=0;exitDy=0;entryX=0.859;entryY=0.998;entryDx=0;entryDy=0;entryPerimeter=0;endArrow=none;endFill=0;" edge="1" parent="1" source="8SaFo7OPya8gfQmlxlre-20" target="8SaFo7OPya8gfQmlxlre-21">
          <mxGeometry relative="1" as="geometry" />
        </mxCell>
        <mxCell id="8SaFo7OPya8gfQmlxlre-17" style="edgeStyle=orthogonalEdgeStyle;rounded=0;orthogonalLoop=1;jettySize=auto;html=1;exitX=0.75;exitY=1;exitDx=0;exitDy=0;entryX=0.134;entryY=1.012;entryDx=0;entryDy=0;entryPerimeter=0;endArrow=none;endFill=0;" edge="1" parent="1" source="8SaFo7OPya8gfQmlxlre-20" target="8SaFo7OPya8gfQmlxlre-21">
          <mxGeometry relative="1" as="geometry" />
        </mxCell>
        <mxCell id="8SaFo7OPya8gfQmlxlre-18" style="edgeStyle=orthogonalEdgeStyle;rounded=0;orthogonalLoop=1;jettySize=auto;html=1;exitX=0.5;exitY=1;exitDx=0;exitDy=0;entryX=0.359;entryY=1.012;entryDx=0;entryDy=0;entryPerimeter=0;endArrow=none;endFill=0;" edge="1" parent="1" source="8SaFo7OPya8gfQmlxlre-20" target="8SaFo7OPya8gfQmlxlre-21">
          <mxGeometry relative="1" as="geometry" />
        </mxCell>
        <mxCell id="8SaFo7OPya8gfQmlxlre-19" style="edgeStyle=orthogonalEdgeStyle;rounded=0;orthogonalLoop=1;jettySize=auto;html=1;exitX=0.5;exitY=1;exitDx=0;exitDy=0;entryX=0.617;entryY=0.984;entryDx=0;entryDy=0;entryPerimeter=0;endArrow=none;endFill=0;" edge="1" parent="1" source="8SaFo7OPya8gfQmlxlre-20" target="8SaFo7OPya8gfQmlxlre-21">
          <mxGeometry relative="1" as="geometry" />
        </mxCell>
        <mxCell id="8SaFo7OPya8gfQmlxlre-105" style="edgeStyle=orthogonalEdgeStyle;rounded=0;orthogonalLoop=1;jettySize=auto;html=1;exitX=0;exitY=0.5;exitDx=0;exitDy=0;endArrow=none;endFill=0;fontSize=14;" edge="1" parent="1" source="8SaFo7OPya8gfQmlxlre-20">
          <mxGeometry relative="1" as="geometry">
            <mxPoint x="310" y="30" as="targetPoint" />
            <Array as="points">
              <mxPoint x="310" y="145" />
            </Array>
          </mxGeometry>
        </mxCell>
        <mxCell id="8SaFo7OPya8gfQmlxlre-118" value="B(13,12,11)" style="edgeLabel;html=1;align=center;verticalAlign=middle;resizable=0;points=[];fontSize=14;" vertex="1" connectable="0" parent="8SaFo7OPya8gfQmlxlre-105">
          <mxGeometry x="0.9457" relative="1" as="geometry">
            <mxPoint x="-1" y="-6.666666666666288" as="offset" />
          </mxGeometry>
        </mxCell>
        <mxCell id="8SaFo7OPya8gfQmlxlre-20" value="" style="shape=trapezoid;perimeter=trapezoidPerimeter;whiteSpace=wrap;html=1;fixedSize=1;rotation=-180;flipV=0;flipH=0;horizontal=1;" vertex="1" parent="1">
          <mxGeometry x="200" y="130" width="100" height="30" as="geometry" />
        </mxCell>
        <mxCell id="8SaFo7OPya8gfQmlxlre-152" style="edgeStyle=orthogonalEdgeStyle;rounded=0;orthogonalLoop=1;jettySize=auto;html=1;exitX=0.5;exitY=0;exitDx=0;exitDy=0;endArrow=none;endFill=0;fontSize=14;" edge="1" parent="1" source="8SaFo7OPya8gfQmlxlre-21">
          <mxGeometry relative="1" as="geometry">
            <mxPoint x="239.9411764705883" y="30" as="targetPoint" />
          </mxGeometry>
        </mxCell>
        <mxCell id="8SaFo7OPya8gfQmlxlre-21" value="SHIFT6" style="rounded=0;whiteSpace=wrap;html=1;" vertex="1" parent="1">
          <mxGeometry x="200" y="50" width="80" height="50" as="geometry" />
        </mxCell>
        <mxCell id="8SaFo7OPya8gfQmlxlre-22" style="edgeStyle=orthogonalEdgeStyle;rounded=0;orthogonalLoop=1;jettySize=auto;html=1;exitX=0.25;exitY=1;exitDx=0;exitDy=0;endArrow=none;endFill=0;" edge="1" parent="1" source="8SaFo7OPya8gfQmlxlre-28">
          <mxGeometry relative="1" as="geometry">
            <mxPoint x="409.9999999999999" y="110" as="targetPoint" />
            <Array as="points">
              <mxPoint x="410" y="130" />
              <mxPoint x="410" y="110" />
            </Array>
          </mxGeometry>
        </mxCell>
        <mxCell id="8SaFo7OPya8gfQmlxlre-23" value="&#39;0&#39;" style="edgeLabel;html=1;align=center;verticalAlign=middle;resizable=0;points=[];fontSize=14;" vertex="1" connectable="0" parent="8SaFo7OPya8gfQmlxlre-22">
          <mxGeometry x="0.9469" y="1" relative="1" as="geometry">
            <mxPoint x="1" y="-1.24" as="offset" />
          </mxGeometry>
        </mxCell>
        <mxCell id="8SaFo7OPya8gfQmlxlre-24" style="edgeStyle=orthogonalEdgeStyle;rounded=0;orthogonalLoop=1;jettySize=auto;html=1;exitX=0.25;exitY=1;exitDx=0;exitDy=0;entryX=0.859;entryY=0.998;entryDx=0;entryDy=0;entryPerimeter=0;endArrow=none;endFill=0;" edge="1" parent="1" source="8SaFo7OPya8gfQmlxlre-28" target="8SaFo7OPya8gfQmlxlre-29">
          <mxGeometry relative="1" as="geometry" />
        </mxCell>
        <mxCell id="8SaFo7OPya8gfQmlxlre-25" style="edgeStyle=orthogonalEdgeStyle;rounded=0;orthogonalLoop=1;jettySize=auto;html=1;exitX=0.75;exitY=1;exitDx=0;exitDy=0;entryX=0.134;entryY=1.012;entryDx=0;entryDy=0;entryPerimeter=0;endArrow=none;endFill=0;" edge="1" parent="1" source="8SaFo7OPya8gfQmlxlre-28" target="8SaFo7OPya8gfQmlxlre-29">
          <mxGeometry relative="1" as="geometry" />
        </mxCell>
        <mxCell id="8SaFo7OPya8gfQmlxlre-26" style="edgeStyle=orthogonalEdgeStyle;rounded=0;orthogonalLoop=1;jettySize=auto;html=1;exitX=0.5;exitY=1;exitDx=0;exitDy=0;entryX=0.359;entryY=1.012;entryDx=0;entryDy=0;entryPerimeter=0;endArrow=none;endFill=0;" edge="1" parent="1" source="8SaFo7OPya8gfQmlxlre-28" target="8SaFo7OPya8gfQmlxlre-29">
          <mxGeometry relative="1" as="geometry" />
        </mxCell>
        <mxCell id="8SaFo7OPya8gfQmlxlre-27" style="edgeStyle=orthogonalEdgeStyle;rounded=0;orthogonalLoop=1;jettySize=auto;html=1;exitX=0.5;exitY=1;exitDx=0;exitDy=0;entryX=0.617;entryY=0.984;entryDx=0;entryDy=0;entryPerimeter=0;endArrow=none;endFill=0;" edge="1" parent="1" source="8SaFo7OPya8gfQmlxlre-28" target="8SaFo7OPya8gfQmlxlre-29">
          <mxGeometry relative="1" as="geometry" />
        </mxCell>
        <mxCell id="8SaFo7OPya8gfQmlxlre-75" style="edgeStyle=orthogonalEdgeStyle;rounded=0;orthogonalLoop=1;jettySize=auto;html=1;exitX=0.5;exitY=0;exitDx=0;exitDy=0;entryX=0.25;entryY=0;entryDx=0;entryDy=0;endArrow=none;endFill=0;fontSize=14;" edge="1" parent="1" source="8SaFo7OPya8gfQmlxlre-28" target="8SaFo7OPya8gfQmlxlre-74">
          <mxGeometry relative="1" as="geometry" />
        </mxCell>
        <mxCell id="8SaFo7OPya8gfQmlxlre-106" style="edgeStyle=orthogonalEdgeStyle;rounded=0;orthogonalLoop=1;jettySize=auto;html=1;exitX=0;exitY=0.5;exitDx=0;exitDy=0;endArrow=none;endFill=0;fontSize=14;" edge="1" parent="1" source="8SaFo7OPya8gfQmlxlre-28">
          <mxGeometry relative="1" as="geometry">
            <mxPoint x="430" y="30" as="targetPoint" />
            <Array as="points">
              <mxPoint x="430" y="145" />
            </Array>
          </mxGeometry>
        </mxCell>
        <mxCell id="8SaFo7OPya8gfQmlxlre-117" value="B(11,10,9)" style="edgeLabel;html=1;align=center;verticalAlign=middle;resizable=0;points=[];fontSize=14;" vertex="1" connectable="0" parent="8SaFo7OPya8gfQmlxlre-106">
          <mxGeometry x="0.9654" y="1" relative="1" as="geometry">
            <mxPoint x="-1" y="-4.999999999999621" as="offset" />
          </mxGeometry>
        </mxCell>
        <mxCell id="8SaFo7OPya8gfQmlxlre-28" value="" style="shape=trapezoid;perimeter=trapezoidPerimeter;whiteSpace=wrap;html=1;fixedSize=1;rotation=-180;flipV=0;flipH=0;horizontal=1;" vertex="1" parent="1">
          <mxGeometry x="320" y="130" width="100" height="30" as="geometry" />
        </mxCell>
        <mxCell id="8SaFo7OPya8gfQmlxlre-153" style="edgeStyle=orthogonalEdgeStyle;rounded=0;orthogonalLoop=1;jettySize=auto;html=1;exitX=0.5;exitY=0;exitDx=0;exitDy=0;endArrow=none;endFill=0;fontSize=14;" edge="1" parent="1" source="8SaFo7OPya8gfQmlxlre-29">
          <mxGeometry relative="1" as="geometry">
            <mxPoint x="359.9411764705883" y="30" as="targetPoint" />
          </mxGeometry>
        </mxCell>
        <mxCell id="8SaFo7OPya8gfQmlxlre-29" value="SHIFT5" style="rounded=0;whiteSpace=wrap;html=1;" vertex="1" parent="1">
          <mxGeometry x="320" y="50" width="80" height="50" as="geometry" />
        </mxCell>
        <mxCell id="8SaFo7OPya8gfQmlxlre-30" style="edgeStyle=orthogonalEdgeStyle;rounded=0;orthogonalLoop=1;jettySize=auto;html=1;exitX=0.25;exitY=1;exitDx=0;exitDy=0;endArrow=none;endFill=0;" edge="1" parent="1" source="8SaFo7OPya8gfQmlxlre-36">
          <mxGeometry relative="1" as="geometry">
            <mxPoint x="530" y="110" as="targetPoint" />
            <Array as="points">
              <mxPoint x="530" y="130" />
              <mxPoint x="530" y="110" />
            </Array>
          </mxGeometry>
        </mxCell>
        <mxCell id="8SaFo7OPya8gfQmlxlre-31" value="&#39;0&#39;" style="edgeLabel;html=1;align=center;verticalAlign=middle;resizable=0;points=[];fontSize=14;" vertex="1" connectable="0" parent="8SaFo7OPya8gfQmlxlre-30">
          <mxGeometry x="0.9469" y="1" relative="1" as="geometry">
            <mxPoint x="1" y="-1.24" as="offset" />
          </mxGeometry>
        </mxCell>
        <mxCell id="8SaFo7OPya8gfQmlxlre-32" style="edgeStyle=orthogonalEdgeStyle;rounded=0;orthogonalLoop=1;jettySize=auto;html=1;exitX=0.25;exitY=1;exitDx=0;exitDy=0;entryX=0.859;entryY=0.998;entryDx=0;entryDy=0;entryPerimeter=0;endArrow=none;endFill=0;" edge="1" parent="1" source="8SaFo7OPya8gfQmlxlre-36" target="8SaFo7OPya8gfQmlxlre-37">
          <mxGeometry relative="1" as="geometry" />
        </mxCell>
        <mxCell id="8SaFo7OPya8gfQmlxlre-33" style="edgeStyle=orthogonalEdgeStyle;rounded=0;orthogonalLoop=1;jettySize=auto;html=1;exitX=0.75;exitY=1;exitDx=0;exitDy=0;entryX=0.134;entryY=1.012;entryDx=0;entryDy=0;entryPerimeter=0;endArrow=none;endFill=0;" edge="1" parent="1" source="8SaFo7OPya8gfQmlxlre-36" target="8SaFo7OPya8gfQmlxlre-37">
          <mxGeometry relative="1" as="geometry" />
        </mxCell>
        <mxCell id="8SaFo7OPya8gfQmlxlre-34" style="edgeStyle=orthogonalEdgeStyle;rounded=0;orthogonalLoop=1;jettySize=auto;html=1;exitX=0.5;exitY=1;exitDx=0;exitDy=0;entryX=0.359;entryY=1.012;entryDx=0;entryDy=0;entryPerimeter=0;endArrow=none;endFill=0;" edge="1" parent="1" source="8SaFo7OPya8gfQmlxlre-36" target="8SaFo7OPya8gfQmlxlre-37">
          <mxGeometry relative="1" as="geometry" />
        </mxCell>
        <mxCell id="8SaFo7OPya8gfQmlxlre-35" style="edgeStyle=orthogonalEdgeStyle;rounded=0;orthogonalLoop=1;jettySize=auto;html=1;exitX=0.5;exitY=1;exitDx=0;exitDy=0;entryX=0.617;entryY=0.984;entryDx=0;entryDy=0;entryPerimeter=0;endArrow=none;endFill=0;" edge="1" parent="1" source="8SaFo7OPya8gfQmlxlre-36" target="8SaFo7OPya8gfQmlxlre-37">
          <mxGeometry relative="1" as="geometry" />
        </mxCell>
        <mxCell id="8SaFo7OPya8gfQmlxlre-107" style="edgeStyle=orthogonalEdgeStyle;rounded=0;orthogonalLoop=1;jettySize=auto;html=1;exitX=0;exitY=0.5;exitDx=0;exitDy=0;endArrow=none;endFill=0;fontSize=14;" edge="1" parent="1" source="8SaFo7OPya8gfQmlxlre-36">
          <mxGeometry relative="1" as="geometry">
            <mxPoint x="550" y="30" as="targetPoint" />
            <Array as="points">
              <mxPoint x="550" y="145" />
            </Array>
          </mxGeometry>
        </mxCell>
        <mxCell id="8SaFo7OPya8gfQmlxlre-116" value="B(9,8,7)" style="edgeLabel;html=1;align=center;verticalAlign=middle;resizable=0;points=[];fontSize=14;" vertex="1" connectable="0" parent="8SaFo7OPya8gfQmlxlre-107">
          <mxGeometry x="0.9407" y="2" relative="1" as="geometry">
            <mxPoint x="-1" y="-6.666666666666288" as="offset" />
          </mxGeometry>
        </mxCell>
        <mxCell id="8SaFo7OPya8gfQmlxlre-36" value="" style="shape=trapezoid;perimeter=trapezoidPerimeter;whiteSpace=wrap;html=1;fixedSize=1;rotation=-180;flipV=0;flipH=0;horizontal=1;" vertex="1" parent="1">
          <mxGeometry x="440" y="130" width="100" height="30" as="geometry" />
        </mxCell>
        <mxCell id="8SaFo7OPya8gfQmlxlre-154" style="edgeStyle=orthogonalEdgeStyle;rounded=0;orthogonalLoop=1;jettySize=auto;html=1;exitX=0.5;exitY=0;exitDx=0;exitDy=0;endArrow=none;endFill=0;fontSize=14;" edge="1" parent="1" source="8SaFo7OPya8gfQmlxlre-37">
          <mxGeometry relative="1" as="geometry">
            <mxPoint x="479.9411764705883" y="30" as="targetPoint" />
          </mxGeometry>
        </mxCell>
        <mxCell id="8SaFo7OPya8gfQmlxlre-37" value="SHIFT4" style="rounded=0;whiteSpace=wrap;html=1;" vertex="1" parent="1">
          <mxGeometry x="440" y="50" width="80" height="50" as="geometry" />
        </mxCell>
        <mxCell id="8SaFo7OPya8gfQmlxlre-38" style="edgeStyle=orthogonalEdgeStyle;rounded=0;orthogonalLoop=1;jettySize=auto;html=1;exitX=0.25;exitY=1;exitDx=0;exitDy=0;endArrow=none;endFill=0;" edge="1" parent="1" source="8SaFo7OPya8gfQmlxlre-44">
          <mxGeometry relative="1" as="geometry">
            <mxPoint x="650" y="110" as="targetPoint" />
            <Array as="points">
              <mxPoint x="650" y="130" />
              <mxPoint x="650" y="110" />
            </Array>
          </mxGeometry>
        </mxCell>
        <mxCell id="8SaFo7OPya8gfQmlxlre-39" value="&#39;0&#39;" style="edgeLabel;html=1;align=center;verticalAlign=middle;resizable=0;points=[];fontSize=14;" vertex="1" connectable="0" parent="8SaFo7OPya8gfQmlxlre-38">
          <mxGeometry x="0.9469" y="1" relative="1" as="geometry">
            <mxPoint x="1" y="-1.24" as="offset" />
          </mxGeometry>
        </mxCell>
        <mxCell id="8SaFo7OPya8gfQmlxlre-40" style="edgeStyle=orthogonalEdgeStyle;rounded=0;orthogonalLoop=1;jettySize=auto;html=1;exitX=0.25;exitY=1;exitDx=0;exitDy=0;entryX=0.859;entryY=0.998;entryDx=0;entryDy=0;entryPerimeter=0;endArrow=none;endFill=0;" edge="1" parent="1" source="8SaFo7OPya8gfQmlxlre-44" target="8SaFo7OPya8gfQmlxlre-45">
          <mxGeometry relative="1" as="geometry" />
        </mxCell>
        <mxCell id="8SaFo7OPya8gfQmlxlre-41" style="edgeStyle=orthogonalEdgeStyle;rounded=0;orthogonalLoop=1;jettySize=auto;html=1;exitX=0.75;exitY=1;exitDx=0;exitDy=0;entryX=0.134;entryY=1.012;entryDx=0;entryDy=0;entryPerimeter=0;endArrow=none;endFill=0;" edge="1" parent="1" source="8SaFo7OPya8gfQmlxlre-44" target="8SaFo7OPya8gfQmlxlre-45">
          <mxGeometry relative="1" as="geometry" />
        </mxCell>
        <mxCell id="8SaFo7OPya8gfQmlxlre-42" style="edgeStyle=orthogonalEdgeStyle;rounded=0;orthogonalLoop=1;jettySize=auto;html=1;exitX=0.5;exitY=1;exitDx=0;exitDy=0;entryX=0.359;entryY=1.012;entryDx=0;entryDy=0;entryPerimeter=0;endArrow=none;endFill=0;" edge="1" parent="1" source="8SaFo7OPya8gfQmlxlre-44" target="8SaFo7OPya8gfQmlxlre-45">
          <mxGeometry relative="1" as="geometry" />
        </mxCell>
        <mxCell id="8SaFo7OPya8gfQmlxlre-43" style="edgeStyle=orthogonalEdgeStyle;rounded=0;orthogonalLoop=1;jettySize=auto;html=1;exitX=0.5;exitY=1;exitDx=0;exitDy=0;entryX=0.617;entryY=0.984;entryDx=0;entryDy=0;entryPerimeter=0;endArrow=none;endFill=0;" edge="1" parent="1" source="8SaFo7OPya8gfQmlxlre-44" target="8SaFo7OPya8gfQmlxlre-45">
          <mxGeometry relative="1" as="geometry" />
        </mxCell>
        <mxCell id="8SaFo7OPya8gfQmlxlre-77" style="edgeStyle=orthogonalEdgeStyle;rounded=0;orthogonalLoop=1;jettySize=auto;html=1;exitX=0.5;exitY=0;exitDx=0;exitDy=0;entryX=1;entryY=0.5;entryDx=0;entryDy=0;endArrow=none;endFill=0;fontSize=14;" edge="1" parent="1" source="8SaFo7OPya8gfQmlxlre-44" target="8SaFo7OPya8gfQmlxlre-74">
          <mxGeometry relative="1" as="geometry" />
        </mxCell>
        <mxCell id="8SaFo7OPya8gfQmlxlre-108" style="edgeStyle=orthogonalEdgeStyle;rounded=0;orthogonalLoop=1;jettySize=auto;html=1;exitX=0;exitY=0.5;exitDx=0;exitDy=0;endArrow=none;endFill=0;fontSize=14;" edge="1" parent="1" source="8SaFo7OPya8gfQmlxlre-44">
          <mxGeometry relative="1" as="geometry">
            <mxPoint x="670" y="30" as="targetPoint" />
            <Array as="points">
              <mxPoint x="670" y="145" />
            </Array>
          </mxGeometry>
        </mxCell>
        <mxCell id="8SaFo7OPya8gfQmlxlre-115" value="B(7,6,5)" style="edgeLabel;html=1;align=center;verticalAlign=middle;resizable=0;points=[];fontSize=14;" vertex="1" connectable="0" parent="8SaFo7OPya8gfQmlxlre-108">
          <mxGeometry x="0.9704" relative="1" as="geometry">
            <mxPoint x="-1" y="-4.999999999999622" as="offset" />
          </mxGeometry>
        </mxCell>
        <mxCell id="8SaFo7OPya8gfQmlxlre-44" value="" style="shape=trapezoid;perimeter=trapezoidPerimeter;whiteSpace=wrap;html=1;fixedSize=1;rotation=-180;flipV=0;flipH=0;horizontal=1;" vertex="1" parent="1">
          <mxGeometry x="560" y="130" width="100" height="30" as="geometry" />
        </mxCell>
        <mxCell id="8SaFo7OPya8gfQmlxlre-155" style="edgeStyle=orthogonalEdgeStyle;rounded=0;orthogonalLoop=1;jettySize=auto;html=1;exitX=0.5;exitY=0;exitDx=0;exitDy=0;endArrow=none;endFill=0;fontSize=14;" edge="1" parent="1" source="8SaFo7OPya8gfQmlxlre-45">
          <mxGeometry relative="1" as="geometry">
            <mxPoint x="599.9411764705883" y="30" as="targetPoint" />
          </mxGeometry>
        </mxCell>
        <mxCell id="8SaFo7OPya8gfQmlxlre-45" value="SHIFT3" style="rounded=0;whiteSpace=wrap;html=1;" vertex="1" parent="1">
          <mxGeometry x="560" y="50" width="80" height="50" as="geometry" />
        </mxCell>
        <mxCell id="8SaFo7OPya8gfQmlxlre-46" style="edgeStyle=orthogonalEdgeStyle;rounded=0;orthogonalLoop=1;jettySize=auto;html=1;exitX=0.25;exitY=1;exitDx=0;exitDy=0;endArrow=none;endFill=0;" edge="1" parent="1" source="8SaFo7OPya8gfQmlxlre-52">
          <mxGeometry relative="1" as="geometry">
            <mxPoint x="770" y="110" as="targetPoint" />
            <Array as="points">
              <mxPoint x="770" y="130" />
              <mxPoint x="770" y="110" />
            </Array>
          </mxGeometry>
        </mxCell>
        <mxCell id="8SaFo7OPya8gfQmlxlre-47" value="&#39;0&#39;" style="edgeLabel;html=1;align=center;verticalAlign=middle;resizable=0;points=[];fontSize=14;" vertex="1" connectable="0" parent="8SaFo7OPya8gfQmlxlre-46">
          <mxGeometry x="0.9469" y="1" relative="1" as="geometry">
            <mxPoint x="1" y="-1.24" as="offset" />
          </mxGeometry>
        </mxCell>
        <mxCell id="8SaFo7OPya8gfQmlxlre-48" style="edgeStyle=orthogonalEdgeStyle;rounded=0;orthogonalLoop=1;jettySize=auto;html=1;exitX=0.25;exitY=1;exitDx=0;exitDy=0;entryX=0.859;entryY=0.998;entryDx=0;entryDy=0;entryPerimeter=0;endArrow=none;endFill=0;" edge="1" parent="1" source="8SaFo7OPya8gfQmlxlre-52" target="8SaFo7OPya8gfQmlxlre-53">
          <mxGeometry relative="1" as="geometry" />
        </mxCell>
        <mxCell id="8SaFo7OPya8gfQmlxlre-49" style="edgeStyle=orthogonalEdgeStyle;rounded=0;orthogonalLoop=1;jettySize=auto;html=1;exitX=0.75;exitY=1;exitDx=0;exitDy=0;entryX=0.134;entryY=1.012;entryDx=0;entryDy=0;entryPerimeter=0;endArrow=none;endFill=0;" edge="1" parent="1" source="8SaFo7OPya8gfQmlxlre-52" target="8SaFo7OPya8gfQmlxlre-53">
          <mxGeometry relative="1" as="geometry" />
        </mxCell>
        <mxCell id="8SaFo7OPya8gfQmlxlre-50" style="edgeStyle=orthogonalEdgeStyle;rounded=0;orthogonalLoop=1;jettySize=auto;html=1;exitX=0.5;exitY=1;exitDx=0;exitDy=0;entryX=0.359;entryY=1.012;entryDx=0;entryDy=0;entryPerimeter=0;endArrow=none;endFill=0;" edge="1" parent="1" source="8SaFo7OPya8gfQmlxlre-52" target="8SaFo7OPya8gfQmlxlre-53">
          <mxGeometry relative="1" as="geometry" />
        </mxCell>
        <mxCell id="8SaFo7OPya8gfQmlxlre-51" style="edgeStyle=orthogonalEdgeStyle;rounded=0;orthogonalLoop=1;jettySize=auto;html=1;exitX=0.5;exitY=1;exitDx=0;exitDy=0;entryX=0.617;entryY=0.984;entryDx=0;entryDy=0;entryPerimeter=0;endArrow=none;endFill=0;" edge="1" parent="1" source="8SaFo7OPya8gfQmlxlre-52" target="8SaFo7OPya8gfQmlxlre-53">
          <mxGeometry relative="1" as="geometry" />
        </mxCell>
        <mxCell id="8SaFo7OPya8gfQmlxlre-71" style="edgeStyle=orthogonalEdgeStyle;rounded=0;orthogonalLoop=1;jettySize=auto;html=1;exitX=0.5;exitY=0;exitDx=0;exitDy=0;entryX=0.25;entryY=0;entryDx=0;entryDy=0;endArrow=none;endFill=0;fontSize=14;" edge="1" parent="1" source="8SaFo7OPya8gfQmlxlre-52" target="8SaFo7OPya8gfQmlxlre-70">
          <mxGeometry relative="1" as="geometry" />
        </mxCell>
        <mxCell id="8SaFo7OPya8gfQmlxlre-109" style="edgeStyle=orthogonalEdgeStyle;rounded=0;orthogonalLoop=1;jettySize=auto;html=1;exitX=0;exitY=0.5;exitDx=0;exitDy=0;endArrow=none;endFill=0;fontSize=14;" edge="1" parent="1" source="8SaFo7OPya8gfQmlxlre-52">
          <mxGeometry relative="1" as="geometry">
            <mxPoint x="790" y="30" as="targetPoint" />
            <Array as="points">
              <mxPoint x="790" y="145" />
            </Array>
          </mxGeometry>
        </mxCell>
        <mxCell id="8SaFo7OPya8gfQmlxlre-114" value="B(5,4,3)" style="edgeLabel;html=1;align=center;verticalAlign=middle;resizable=0;points=[];fontSize=14;" vertex="1" connectable="0" parent="8SaFo7OPya8gfQmlxlre-109">
          <mxGeometry x="1" y="-1" relative="1" as="geometry">
            <mxPoint x="-1" y="-3.3333333333329542" as="offset" />
          </mxGeometry>
        </mxCell>
        <mxCell id="8SaFo7OPya8gfQmlxlre-52" value="" style="shape=trapezoid;perimeter=trapezoidPerimeter;whiteSpace=wrap;html=1;fixedSize=1;rotation=-180;flipV=0;flipH=0;horizontal=1;" vertex="1" parent="1">
          <mxGeometry x="680" y="130" width="100" height="30" as="geometry" />
        </mxCell>
        <mxCell id="8SaFo7OPya8gfQmlxlre-156" style="edgeStyle=orthogonalEdgeStyle;rounded=0;orthogonalLoop=1;jettySize=auto;html=1;exitX=0.5;exitY=0;exitDx=0;exitDy=0;endArrow=none;endFill=0;fontSize=14;" edge="1" parent="1" source="8SaFo7OPya8gfQmlxlre-53">
          <mxGeometry relative="1" as="geometry">
            <mxPoint x="720" y="30" as="targetPoint" />
          </mxGeometry>
        </mxCell>
        <mxCell id="8SaFo7OPya8gfQmlxlre-53" value="SHIFT2" style="rounded=0;whiteSpace=wrap;html=1;" vertex="1" parent="1">
          <mxGeometry x="680" y="50" width="80" height="50" as="geometry" />
        </mxCell>
        <mxCell id="8SaFo7OPya8gfQmlxlre-54" style="edgeStyle=orthogonalEdgeStyle;rounded=0;orthogonalLoop=1;jettySize=auto;html=1;exitX=0.25;exitY=1;exitDx=0;exitDy=0;endArrow=none;endFill=0;" edge="1" parent="1" source="8SaFo7OPya8gfQmlxlre-60">
          <mxGeometry relative="1" as="geometry">
            <mxPoint x="890" y="110" as="targetPoint" />
            <Array as="points">
              <mxPoint x="890" y="130" />
              <mxPoint x="890" y="110" />
            </Array>
          </mxGeometry>
        </mxCell>
        <mxCell id="8SaFo7OPya8gfQmlxlre-55" value="&#39;0&#39;" style="edgeLabel;html=1;align=center;verticalAlign=middle;resizable=0;points=[];fontSize=14;" vertex="1" connectable="0" parent="8SaFo7OPya8gfQmlxlre-54">
          <mxGeometry x="0.9469" y="1" relative="1" as="geometry">
            <mxPoint x="1" y="-1.24" as="offset" />
          </mxGeometry>
        </mxCell>
        <mxCell id="8SaFo7OPya8gfQmlxlre-56" style="edgeStyle=orthogonalEdgeStyle;rounded=0;orthogonalLoop=1;jettySize=auto;html=1;exitX=0.25;exitY=1;exitDx=0;exitDy=0;entryX=0.859;entryY=0.998;entryDx=0;entryDy=0;entryPerimeter=0;endArrow=none;endFill=0;" edge="1" parent="1" source="8SaFo7OPya8gfQmlxlre-60" target="8SaFo7OPya8gfQmlxlre-61">
          <mxGeometry relative="1" as="geometry" />
        </mxCell>
        <mxCell id="8SaFo7OPya8gfQmlxlre-57" style="edgeStyle=orthogonalEdgeStyle;rounded=0;orthogonalLoop=1;jettySize=auto;html=1;exitX=0.75;exitY=1;exitDx=0;exitDy=0;entryX=0.134;entryY=1.012;entryDx=0;entryDy=0;entryPerimeter=0;endArrow=none;endFill=0;" edge="1" parent="1" source="8SaFo7OPya8gfQmlxlre-60" target="8SaFo7OPya8gfQmlxlre-61">
          <mxGeometry relative="1" as="geometry" />
        </mxCell>
        <mxCell id="8SaFo7OPya8gfQmlxlre-58" style="edgeStyle=orthogonalEdgeStyle;rounded=0;orthogonalLoop=1;jettySize=auto;html=1;exitX=0.5;exitY=1;exitDx=0;exitDy=0;entryX=0.359;entryY=1.012;entryDx=0;entryDy=0;entryPerimeter=0;endArrow=none;endFill=0;" edge="1" parent="1" source="8SaFo7OPya8gfQmlxlre-60" target="8SaFo7OPya8gfQmlxlre-61">
          <mxGeometry relative="1" as="geometry" />
        </mxCell>
        <mxCell id="8SaFo7OPya8gfQmlxlre-59" style="edgeStyle=orthogonalEdgeStyle;rounded=0;orthogonalLoop=1;jettySize=auto;html=1;exitX=0.5;exitY=1;exitDx=0;exitDy=0;entryX=0.617;entryY=0.984;entryDx=0;entryDy=0;entryPerimeter=0;endArrow=none;endFill=0;" edge="1" parent="1" source="8SaFo7OPya8gfQmlxlre-60" target="8SaFo7OPya8gfQmlxlre-61">
          <mxGeometry relative="1" as="geometry" />
        </mxCell>
        <mxCell id="8SaFo7OPya8gfQmlxlre-72" style="edgeStyle=orthogonalEdgeStyle;rounded=0;orthogonalLoop=1;jettySize=auto;html=1;exitX=0.5;exitY=0;exitDx=0;exitDy=0;entryX=0.75;entryY=0;entryDx=0;entryDy=0;endArrow=none;endFill=0;fontSize=14;" edge="1" parent="1" source="8SaFo7OPya8gfQmlxlre-60" target="8SaFo7OPya8gfQmlxlre-70">
          <mxGeometry relative="1" as="geometry" />
        </mxCell>
        <mxCell id="8SaFo7OPya8gfQmlxlre-110" style="edgeStyle=orthogonalEdgeStyle;rounded=0;orthogonalLoop=1;jettySize=auto;html=1;exitX=0;exitY=0.5;exitDx=0;exitDy=0;endArrow=none;endFill=0;fontSize=14;" edge="1" parent="1" source="8SaFo7OPya8gfQmlxlre-60">
          <mxGeometry relative="1" as="geometry">
            <mxPoint x="910" y="30" as="targetPoint" />
            <Array as="points">
              <mxPoint x="910" y="145" />
            </Array>
          </mxGeometry>
        </mxCell>
        <mxCell id="8SaFo7OPya8gfQmlxlre-113" value="B(3,2,1)" style="edgeLabel;html=1;align=center;verticalAlign=middle;resizable=0;points=[];fontSize=14;" vertex="1" connectable="0" parent="8SaFo7OPya8gfQmlxlre-110">
          <mxGeometry x="0.9407" y="-1" relative="1" as="geometry">
            <mxPoint x="-1" y="-6.666666666666288" as="offset" />
          </mxGeometry>
        </mxCell>
        <mxCell id="8SaFo7OPya8gfQmlxlre-60" value="" style="shape=trapezoid;perimeter=trapezoidPerimeter;whiteSpace=wrap;html=1;fixedSize=1;rotation=-180;flipV=0;flipH=0;horizontal=1;" vertex="1" parent="1">
          <mxGeometry x="800" y="130" width="100" height="30" as="geometry" />
        </mxCell>
        <mxCell id="8SaFo7OPya8gfQmlxlre-157" style="edgeStyle=orthogonalEdgeStyle;rounded=0;orthogonalLoop=1;jettySize=auto;html=1;exitX=0.5;exitY=0;exitDx=0;exitDy=0;endArrow=none;endFill=0;fontSize=14;" edge="1" parent="1" source="8SaFo7OPya8gfQmlxlre-61">
          <mxGeometry relative="1" as="geometry">
            <mxPoint x="839.7241379310344" y="30" as="targetPoint" />
          </mxGeometry>
        </mxCell>
        <mxCell id="8SaFo7OPya8gfQmlxlre-61" value="SHIFT1" style="rounded=0;whiteSpace=wrap;html=1;" vertex="1" parent="1">
          <mxGeometry x="800" y="50" width="80" height="50" as="geometry" />
        </mxCell>
        <mxCell id="8SaFo7OPya8gfQmlxlre-62" style="edgeStyle=orthogonalEdgeStyle;rounded=0;orthogonalLoop=1;jettySize=auto;html=1;exitX=0.25;exitY=1;exitDx=0;exitDy=0;endArrow=none;endFill=0;" edge="1" parent="1" source="8SaFo7OPya8gfQmlxlre-68">
          <mxGeometry relative="1" as="geometry">
            <mxPoint x="1010" y="110" as="targetPoint" />
            <Array as="points">
              <mxPoint x="1010" y="130" />
              <mxPoint x="1010" y="110" />
            </Array>
          </mxGeometry>
        </mxCell>
        <mxCell id="8SaFo7OPya8gfQmlxlre-63" value="&#39;0&#39;" style="edgeLabel;html=1;align=center;verticalAlign=middle;resizable=0;points=[];fontSize=14;" vertex="1" connectable="0" parent="8SaFo7OPya8gfQmlxlre-62">
          <mxGeometry x="0.9469" y="1" relative="1" as="geometry">
            <mxPoint x="1" y="-1.24" as="offset" />
          </mxGeometry>
        </mxCell>
        <mxCell id="8SaFo7OPya8gfQmlxlre-64" style="edgeStyle=orthogonalEdgeStyle;rounded=0;orthogonalLoop=1;jettySize=auto;html=1;exitX=0.25;exitY=1;exitDx=0;exitDy=0;entryX=0.859;entryY=0.998;entryDx=0;entryDy=0;entryPerimeter=0;endArrow=none;endFill=0;" edge="1" parent="1" source="8SaFo7OPya8gfQmlxlre-68" target="8SaFo7OPya8gfQmlxlre-69">
          <mxGeometry relative="1" as="geometry" />
        </mxCell>
        <mxCell id="8SaFo7OPya8gfQmlxlre-65" style="edgeStyle=orthogonalEdgeStyle;rounded=0;orthogonalLoop=1;jettySize=auto;html=1;exitX=0.75;exitY=1;exitDx=0;exitDy=0;entryX=0.134;entryY=1.012;entryDx=0;entryDy=0;entryPerimeter=0;endArrow=none;endFill=0;" edge="1" parent="1" source="8SaFo7OPya8gfQmlxlre-68" target="8SaFo7OPya8gfQmlxlre-69">
          <mxGeometry relative="1" as="geometry" />
        </mxCell>
        <mxCell id="8SaFo7OPya8gfQmlxlre-66" style="edgeStyle=orthogonalEdgeStyle;rounded=0;orthogonalLoop=1;jettySize=auto;html=1;exitX=0.5;exitY=1;exitDx=0;exitDy=0;entryX=0.359;entryY=1.012;entryDx=0;entryDy=0;entryPerimeter=0;endArrow=none;endFill=0;" edge="1" parent="1" source="8SaFo7OPya8gfQmlxlre-68" target="8SaFo7OPya8gfQmlxlre-69">
          <mxGeometry relative="1" as="geometry" />
        </mxCell>
        <mxCell id="8SaFo7OPya8gfQmlxlre-67" style="edgeStyle=orthogonalEdgeStyle;rounded=0;orthogonalLoop=1;jettySize=auto;html=1;exitX=0.5;exitY=1;exitDx=0;exitDy=0;entryX=0.617;entryY=0.984;entryDx=0;entryDy=0;entryPerimeter=0;endArrow=none;endFill=0;" edge="1" parent="1" source="8SaFo7OPya8gfQmlxlre-68" target="8SaFo7OPya8gfQmlxlre-69">
          <mxGeometry relative="1" as="geometry" />
        </mxCell>
        <mxCell id="8SaFo7OPya8gfQmlxlre-73" style="edgeStyle=orthogonalEdgeStyle;rounded=0;orthogonalLoop=1;jettySize=auto;html=1;exitX=0.5;exitY=0;exitDx=0;exitDy=0;entryX=1;entryY=0.5;entryDx=0;entryDy=0;endArrow=none;endFill=0;fontSize=14;" edge="1" parent="1" source="8SaFo7OPya8gfQmlxlre-68" target="8SaFo7OPya8gfQmlxlre-70">
          <mxGeometry relative="1" as="geometry" />
        </mxCell>
        <mxCell id="8SaFo7OPya8gfQmlxlre-111" style="edgeStyle=orthogonalEdgeStyle;rounded=0;orthogonalLoop=1;jettySize=auto;html=1;exitX=0;exitY=0.5;exitDx=0;exitDy=0;endArrow=none;endFill=0;fontSize=14;" edge="1" parent="1" source="8SaFo7OPya8gfQmlxlre-68">
          <mxGeometry relative="1" as="geometry">
            <mxPoint x="1030" y="30" as="targetPoint" />
            <Array as="points">
              <mxPoint x="1030" y="145" />
            </Array>
          </mxGeometry>
        </mxCell>
        <mxCell id="8SaFo7OPya8gfQmlxlre-112" value="B(1,0,-1)" style="edgeLabel;html=1;align=center;verticalAlign=middle;resizable=0;points=[];fontSize=14;" vertex="1" connectable="0" parent="8SaFo7OPya8gfQmlxlre-111">
          <mxGeometry x="0.9654" relative="1" as="geometry">
            <mxPoint x="-1" y="-4.999999999999622" as="offset" />
          </mxGeometry>
        </mxCell>
        <mxCell id="8SaFo7OPya8gfQmlxlre-68" value="" style="shape=trapezoid;perimeter=trapezoidPerimeter;whiteSpace=wrap;html=1;fixedSize=1;rotation=-180;flipV=0;flipH=0;horizontal=1;" vertex="1" parent="1">
          <mxGeometry x="920" y="130" width="100" height="30" as="geometry" />
        </mxCell>
        <mxCell id="8SaFo7OPya8gfQmlxlre-158" style="edgeStyle=orthogonalEdgeStyle;rounded=0;orthogonalLoop=1;jettySize=auto;html=1;exitX=0.5;exitY=0;exitDx=0;exitDy=0;endArrow=none;endFill=0;fontSize=14;" edge="1" parent="1" source="8SaFo7OPya8gfQmlxlre-69">
          <mxGeometry relative="1" as="geometry">
            <mxPoint x="959.7241379310344" y="30" as="targetPoint" />
          </mxGeometry>
        </mxCell>
        <mxCell id="8SaFo7OPya8gfQmlxlre-159" value="A" style="edgeLabel;html=1;align=center;verticalAlign=middle;resizable=0;points=[];fontSize=14;" vertex="1" connectable="0" parent="8SaFo7OPya8gfQmlxlre-158">
          <mxGeometry x="0.9768" y="1" relative="1" as="geometry">
            <mxPoint x="1.28" y="-10.02" as="offset" />
          </mxGeometry>
        </mxCell>
        <mxCell id="8SaFo7OPya8gfQmlxlre-69" value="SHIFT0" style="rounded=0;whiteSpace=wrap;html=1;" vertex="1" parent="1">
          <mxGeometry x="920" y="50" width="80" height="50" as="geometry" />
        </mxCell>
        <mxCell id="8SaFo7OPya8gfQmlxlre-70" value="CSA0" style="rounded=0;whiteSpace=wrap;html=1;fontSize=14;" vertex="1" parent="1">
          <mxGeometry x="700" y="240" width="120" height="80" as="geometry" />
        </mxCell>
        <mxCell id="8SaFo7OPya8gfQmlxlre-76" style="edgeStyle=orthogonalEdgeStyle;rounded=0;orthogonalLoop=1;jettySize=auto;html=1;exitX=0.75;exitY=0;exitDx=0;exitDy=0;entryX=0.5;entryY=0;entryDx=0;entryDy=0;endArrow=none;endFill=0;fontSize=14;" edge="1" parent="1" source="8SaFo7OPya8gfQmlxlre-74" target="8SaFo7OPya8gfQmlxlre-36">
          <mxGeometry relative="1" as="geometry" />
        </mxCell>
        <mxCell id="8SaFo7OPya8gfQmlxlre-82" style="edgeStyle=orthogonalEdgeStyle;rounded=0;orthogonalLoop=1;jettySize=auto;html=1;exitX=0.75;exitY=1;exitDx=0;exitDy=0;entryX=0.25;entryY=0;entryDx=0;entryDy=0;endArrow=none;endFill=0;fontSize=14;" edge="1" parent="1" source="8SaFo7OPya8gfQmlxlre-74" target="8SaFo7OPya8gfQmlxlre-78">
          <mxGeometry relative="1" as="geometry" />
        </mxCell>
        <mxCell id="8SaFo7OPya8gfQmlxlre-86" style="edgeStyle=orthogonalEdgeStyle;rounded=0;orthogonalLoop=1;jettySize=auto;html=1;exitX=0.25;exitY=1;exitDx=0;exitDy=0;entryX=1;entryY=0.5;entryDx=0;entryDy=0;endArrow=none;endFill=0;fontSize=14;" edge="1" parent="1" source="8SaFo7OPya8gfQmlxlre-74" target="8SaFo7OPya8gfQmlxlre-83">
          <mxGeometry relative="1" as="geometry" />
        </mxCell>
        <mxCell id="8SaFo7OPya8gfQmlxlre-74" value="CSA1" style="rounded=0;whiteSpace=wrap;html=1;fontSize=14;" vertex="1" parent="1">
          <mxGeometry x="340" y="240" width="120" height="80" as="geometry" />
        </mxCell>
        <mxCell id="8SaFo7OPya8gfQmlxlre-80" style="edgeStyle=orthogonalEdgeStyle;rounded=0;orthogonalLoop=1;jettySize=auto;html=1;exitX=0.75;exitY=0;exitDx=0;exitDy=0;entryX=0.25;entryY=1;entryDx=0;entryDy=0;endArrow=none;endFill=0;fontSize=14;" edge="1" parent="1" source="8SaFo7OPya8gfQmlxlre-78" target="8SaFo7OPya8gfQmlxlre-70">
          <mxGeometry relative="1" as="geometry" />
        </mxCell>
        <mxCell id="8SaFo7OPya8gfQmlxlre-81" style="edgeStyle=orthogonalEdgeStyle;rounded=0;orthogonalLoop=1;jettySize=auto;html=1;exitX=1;exitY=0.5;exitDx=0;exitDy=0;entryX=0.75;entryY=1;entryDx=0;entryDy=0;endArrow=none;endFill=0;fontSize=14;" edge="1" parent="1" source="8SaFo7OPya8gfQmlxlre-78" target="8SaFo7OPya8gfQmlxlre-70">
          <mxGeometry relative="1" as="geometry" />
        </mxCell>
        <mxCell id="8SaFo7OPya8gfQmlxlre-88" style="edgeStyle=orthogonalEdgeStyle;rounded=0;orthogonalLoop=1;jettySize=auto;html=1;exitX=0.25;exitY=1;exitDx=0;exitDy=0;entryX=0.75;entryY=0;entryDx=0;entryDy=0;endArrow=none;endFill=0;fontSize=14;" edge="1" parent="1" source="8SaFo7OPya8gfQmlxlre-78" target="8SaFo7OPya8gfQmlxlre-87">
          <mxGeometry relative="1" as="geometry" />
        </mxCell>
        <mxCell id="8SaFo7OPya8gfQmlxlre-78" value="CSA2" style="rounded=0;whiteSpace=wrap;html=1;fontSize=14;" vertex="1" parent="1">
          <mxGeometry x="400" y="400" width="120" height="80" as="geometry" />
        </mxCell>
        <mxCell id="8SaFo7OPya8gfQmlxlre-85" style="edgeStyle=orthogonalEdgeStyle;rounded=0;orthogonalLoop=1;jettySize=auto;html=1;exitX=0.75;exitY=0;exitDx=0;exitDy=0;entryX=0.5;entryY=0;entryDx=0;entryDy=0;endArrow=none;endFill=0;fontSize=14;" edge="1" parent="1" source="8SaFo7OPya8gfQmlxlre-83" target="8SaFo7OPya8gfQmlxlre-20">
          <mxGeometry relative="1" as="geometry" />
        </mxCell>
        <mxCell id="8SaFo7OPya8gfQmlxlre-90" style="edgeStyle=orthogonalEdgeStyle;rounded=0;orthogonalLoop=1;jettySize=auto;html=1;exitX=0.75;exitY=1;exitDx=0;exitDy=0;entryX=0.25;entryY=0;entryDx=0;entryDy=0;endArrow=none;endFill=0;fontSize=14;" edge="1" parent="1" source="8SaFo7OPya8gfQmlxlre-83" target="8SaFo7OPya8gfQmlxlre-87">
          <mxGeometry relative="1" as="geometry" />
        </mxCell>
        <mxCell id="8SaFo7OPya8gfQmlxlre-92" style="edgeStyle=orthogonalEdgeStyle;rounded=0;orthogonalLoop=1;jettySize=auto;html=1;exitX=0.25;exitY=1;exitDx=0;exitDy=0;entryX=0.25;entryY=0;entryDx=0;entryDy=0;endArrow=none;endFill=0;fontSize=14;" edge="1" parent="1" source="8SaFo7OPya8gfQmlxlre-83" target="8SaFo7OPya8gfQmlxlre-91">
          <mxGeometry relative="1" as="geometry" />
        </mxCell>
        <mxCell id="8SaFo7OPya8gfQmlxlre-83" value="CSA3" style="rounded=0;whiteSpace=wrap;html=1;fontSize=14;" vertex="1" parent="1">
          <mxGeometry x="100" y="400" width="120" height="80" as="geometry" />
        </mxCell>
        <mxCell id="8SaFo7OPya8gfQmlxlre-89" style="edgeStyle=orthogonalEdgeStyle;rounded=0;orthogonalLoop=1;jettySize=auto;html=1;exitX=1;exitY=0.5;exitDx=0;exitDy=0;entryX=0.75;entryY=1;entryDx=0;entryDy=0;endArrow=none;endFill=0;fontSize=14;" edge="1" parent="1" source="8SaFo7OPya8gfQmlxlre-87" target="8SaFo7OPya8gfQmlxlre-78">
          <mxGeometry relative="1" as="geometry" />
        </mxCell>
        <mxCell id="8SaFo7OPya8gfQmlxlre-93" style="edgeStyle=orthogonalEdgeStyle;rounded=0;orthogonalLoop=1;jettySize=auto;html=1;exitX=0.75;exitY=1;exitDx=0;exitDy=0;entryX=1;entryY=0.5;entryDx=0;entryDy=0;endArrow=none;endFill=0;fontSize=14;" edge="1" parent="1" source="8SaFo7OPya8gfQmlxlre-87" target="8SaFo7OPya8gfQmlxlre-91">
          <mxGeometry relative="1" as="geometry" />
        </mxCell>
        <mxCell id="8SaFo7OPya8gfQmlxlre-94" style="edgeStyle=orthogonalEdgeStyle;rounded=0;orthogonalLoop=1;jettySize=auto;html=1;exitX=0.25;exitY=1;exitDx=0;exitDy=0;entryX=0.75;entryY=0;entryDx=0;entryDy=0;endArrow=none;endFill=0;fontSize=14;" edge="1" parent="1" source="8SaFo7OPya8gfQmlxlre-87" target="8SaFo7OPya8gfQmlxlre-91">
          <mxGeometry relative="1" as="geometry" />
        </mxCell>
        <mxCell id="8SaFo7OPya8gfQmlxlre-87" value="CSA4" style="rounded=0;whiteSpace=wrap;html=1;fontSize=14;" vertex="1" parent="1">
          <mxGeometry x="160" y="560" width="120" height="80" as="geometry" />
        </mxCell>
        <mxCell id="8SaFo7OPya8gfQmlxlre-95" style="edgeStyle=orthogonalEdgeStyle;rounded=0;orthogonalLoop=1;jettySize=auto;html=1;exitX=0.25;exitY=1;exitDx=0;exitDy=0;endArrow=none;endFill=0;fontSize=14;" edge="1" parent="1" source="8SaFo7OPya8gfQmlxlre-91">
          <mxGeometry relative="1" as="geometry">
            <mxPoint x="130" y="840" as="targetPoint" />
          </mxGeometry>
        </mxCell>
        <mxCell id="8SaFo7OPya8gfQmlxlre-96" style="edgeStyle=orthogonalEdgeStyle;rounded=0;orthogonalLoop=1;jettySize=auto;html=1;exitX=0.75;exitY=1;exitDx=0;exitDy=0;endArrow=none;endFill=0;fontSize=14;" edge="1" parent="1" source="8SaFo7OPya8gfQmlxlre-91">
          <mxGeometry relative="1" as="geometry">
            <mxPoint x="189.9411764705883" y="839.9999999999998" as="targetPoint" />
          </mxGeometry>
        </mxCell>
        <mxCell id="8SaFo7OPya8gfQmlxlre-91" value="CSA5" style="rounded=0;whiteSpace=wrap;html=1;fontSize=14;" vertex="1" parent="1">
          <mxGeometry x="100" y="720" width="120" height="80" as="geometry" />
        </mxCell>
        <mxCell id="8SaFo7OPya8gfQmlxlre-98" style="edgeStyle=orthogonalEdgeStyle;rounded=0;orthogonalLoop=1;jettySize=auto;html=1;exitX=1;exitY=0.5;exitDx=0;exitDy=0;endArrow=none;endFill=0;fontSize=14;" edge="1" parent="1" source="8SaFo7OPya8gfQmlxlre-97">
          <mxGeometry relative="1" as="geometry">
            <mxPoint x="240" y="869.8571428571429" as="targetPoint" />
          </mxGeometry>
        </mxCell>
        <mxCell id="8SaFo7OPya8gfQmlxlre-100" value="&#39;0&#39;" style="edgeLabel;html=1;align=center;verticalAlign=middle;resizable=0;points=[];fontSize=14;" vertex="1" connectable="0" parent="8SaFo7OPya8gfQmlxlre-98">
          <mxGeometry x="1" y="2" relative="1" as="geometry">
            <mxPoint x="1.94" y="-10.39" as="offset" />
          </mxGeometry>
        </mxCell>
        <mxCell id="8SaFo7OPya8gfQmlxlre-99" style="edgeStyle=orthogonalEdgeStyle;rounded=0;orthogonalLoop=1;jettySize=auto;html=1;exitX=0.5;exitY=1;exitDx=0;exitDy=0;endArrow=none;endFill=0;fontSize=14;" edge="1" parent="1" source="8SaFo7OPya8gfQmlxlre-97">
          <mxGeometry relative="1" as="geometry">
            <mxPoint x="159.8571428571429" y="930" as="targetPoint" />
          </mxGeometry>
        </mxCell>
        <mxCell id="8SaFo7OPya8gfQmlxlre-102" value="MULT" style="edgeLabel;html=1;align=center;verticalAlign=middle;resizable=0;points=[];fontSize=14;" vertex="1" connectable="0" parent="8SaFo7OPya8gfQmlxlre-99">
          <mxGeometry x="0.6476" relative="1" as="geometry">
            <mxPoint x="0.12" as="offset" />
          </mxGeometry>
        </mxCell>
        <mxCell id="8SaFo7OPya8gfQmlxlre-97" value="ADD/SUB" style="rounded=0;whiteSpace=wrap;html=1;fontSize=14;fillColor=#DAE8FC;" vertex="1" parent="1">
          <mxGeometry x="100" y="840" width="120" height="60" as="geometry" />
        </mxCell>
        <mxCell id="8SaFo7OPya8gfQmlxlre-160" value="A" style="edgeLabel;html=1;align=center;verticalAlign=middle;resizable=0;points=[];fontSize=14;" vertex="1" connectable="0" parent="1">
          <mxGeometry x="840.0042592799093" y="19.99569401717679" as="geometry" />
        </mxCell>
        <mxCell id="8SaFo7OPya8gfQmlxlre-161" value="A" style="edgeLabel;html=1;align=center;verticalAlign=middle;resizable=0;points=[];fontSize=14;" vertex="1" connectable="0" parent="1">
          <mxGeometry x="720.0042592799093" y="19.99569401717679" as="geometry" />
        </mxCell>
        <mxCell id="8SaFo7OPya8gfQmlxlre-162" value="" style="edgeLabel;html=1;align=center;verticalAlign=middle;resizable=0;points=[];fontSize=14;" vertex="1" connectable="0" parent="1">
          <mxGeometry x="860.0042592799093" y="39.99569401717679" as="geometry">
            <mxPoint x="-24" y="15" as="offset" />
          </mxGeometry>
        </mxCell>
        <mxCell id="8SaFo7OPya8gfQmlxlre-163" value="" style="edgeLabel;html=1;align=center;verticalAlign=middle;resizable=0;points=[];fontSize=14;" vertex="1" connectable="0" parent="1">
          <mxGeometry x="870.0042592799093" y="49.99569401717679" as="geometry">
            <mxPoint x="5" y="-25" as="offset" />
          </mxGeometry>
        </mxCell>
        <mxCell id="8SaFo7OPya8gfQmlxlre-164" value="A" style="edgeLabel;html=1;align=center;verticalAlign=middle;resizable=0;points=[];fontSize=14;" vertex="1" connectable="0" parent="1">
          <mxGeometry x="600.0042592799093" y="19.99569401717679" as="geometry" />
        </mxCell>
        <mxCell id="8SaFo7OPya8gfQmlxlre-165" value="A" style="edgeLabel;html=1;align=center;verticalAlign=middle;resizable=0;points=[];fontSize=14;" vertex="1" connectable="0" parent="1">
          <mxGeometry x="480.0042592799093" y="19.99569401717679" as="geometry" />
        </mxCell>
        <mxCell id="8SaFo7OPya8gfQmlxlre-166" value="" style="edgeLabel;html=1;align=center;verticalAlign=middle;resizable=0;points=[];fontSize=14;" vertex="1" connectable="0" parent="1">
          <mxGeometry x="490.0042592799093" y="29.99569401717679" as="geometry" />
        </mxCell>
        <mxCell id="8SaFo7OPya8gfQmlxlre-167" value="A" style="edgeLabel;html=1;align=center;verticalAlign=middle;resizable=0;points=[];fontSize=14;" vertex="1" connectable="0" parent="1">
          <mxGeometry x="360.0042592799093" y="19.99569401717679" as="geometry" />
        </mxCell>
        <mxCell id="8SaFo7OPya8gfQmlxlre-168" value="A" style="edgeLabel;html=1;align=center;verticalAlign=middle;resizable=0;points=[];fontSize=14;" vertex="1" connectable="0" parent="1">
          <mxGeometry x="240.00425927990932" y="19.99569401717679" as="geometry" />
        </mxCell>
        <mxCell id="8SaFo7OPya8gfQmlxlre-169" value="A" style="edgeLabel;html=1;align=center;verticalAlign=middle;resizable=0;points=[];fontSize=14;" vertex="1" connectable="0" parent="1">
          <mxGeometry x="120.00425927990932" y="19.99569401717679" as="geometry" />
        </mxCell>
      </root>
    </mxGraphModel>
  </diagram>
</mxfile>
